<?xml version="1.0" standalone="no"?>
<!DOCTYPE svg PUBLIC "-//W3C//DTD SVG 20010904//EN"
 "http://www.w3.org/TR/2001/REC-SVG-20010904/DTD/svg10.dtd">
<svg version="1.0" xmlns="http://www.w3.org/2000/svg"
 width="300.000000pt" height="300.000000pt" viewBox="0 0 300.000000 300.000000"
 preserveAspectRatio="xMidYMid meet">
<metadata>
Created by potrace 1.14, written by Peter Selinger 2001-2017
</metadata>
<g transform="translate(0.000000,300.000000) scale(0.100000,-0.100000)"
fill="#000000" stroke="none">
<path d="M1340 2994 c-320 -41 -598 -164 -836 -372 -234 -204 -406 -502 -476
-825 -29 -138 -32 -436 -5 -572 123 -609 573 -1066 1180 -1197 138 -29 436
-32 572 -5 609 123 1066 573 1197 1180 29 138 32 436 5 572 -122 607 -576
1068 -1175 1195 -95 21 -376 35 -462 24z m653 -420 c171 -32 291 -107 349
-217 19 -35 23 -58 23 -132 0 -83 -2 -95 -34 -152 -74 -137 -202 -258 -561
-526 -351 -263 -413 -335 -413 -477 0 -56 5 -76 26 -113 37 -63 80 -82 188
-82 77 0 92 4 154 34 60 30 67 36 51 45 -99 59 -126 99 -126 189 0 105 85 187
193 187 209 0 249 -255 61 -389 -184 -133 -522 -168 -713 -75 -75 37 -143 107
-164 169 -22 64 -21 159 2 234 36 117 119 203 456 472 281 225 350 292 396
384 31 63 34 78 34 155 0 68 -5 93 -22 127 -29 53 -83 98 -139 113 -88 25
-273 -9 -317 -58 -15 -17 -14 -19 28 -30 52 -14 122 -73 142 -119 38 -92 -10
-202 -112 -256 -63 -33 -159 -30 -221 9 -118 73 -128 233 -21 350 132 145 451
213 740 158z m-490 -1929 c57 -27 81 -68 85 -146 5 -87 -22 -153 -90 -214
-103 -93 -274 -102 -347 -20 -84 96 -50 267 70 351 80 55 201 68 282 29z"/>
</g>
</svg>
