<svg width="300" height="300" viewBox="0 0 300 300" fill="none" xmlns="http://www.w3.org/2000/svg">
<path fill-rule="evenodd" clip-rule="evenodd" d="M300 150C300 232.843 232.843 300 150 300C67.1573 300 0 232.843 0 150C0 67.1573 67.1573 0 150 0C232.843 0 300 67.1573 300 150ZM158.3 47.9C161.7 47.3 164.6 47 167 47C175.4 47 181.6 49.4 185.6 54.2C189.8 58.8 191.9 64.9 191.9 72.5C191.9 78.7 190.3 84.4 187.1 89.6C184.1 94.8 179.4 100.2 173 105.8C166.8 111.2 159 117.6 149.6 125C141 131.8 132.9 138.3 125.3 144.5C117.9 150.5 111.9 156.8 107.3 163.4C102.9 170 100.7 177.3 100.7 185.3C100.7 192.9 102.7 199.2 106.7 204.2C110.9 209 116.4 212.7 123.2 215.3C130.2 217.7 138 218.9 146.6 218.9C152.2 218.9 158.2 218.2 164.6 216.8C171.2 215.4 177.4 213.3 183.2 210.5C189 207.7 193.7 204.1 197.3 199.7C200.9 195.3 202.7 190 202.7 183.8C202.7 178.6 200.9 174.5 197.3 171.5C193.9 168.3 189.9 166.7 185.3 166.7C179.3 166.7 174.3 168.6 170.3 172.4C166.5 176.2 164.6 180.8 164.6 186.2C164.6 191.4 166.1 195.6 169.1 198.8C172.3 201.8 175.6 203.9 179 205.1C176.4 207.5 172.9 209.4 168.5 210.8C164.3 212.2 160.1 212.9 155.9 212.9C148.9 212.9 143.7 211 140.3 207.2C137.1 203.4 135.5 198.8 135.5 193.4C135.5 187.8 136.9 182.7 139.7 178.1C142.7 173.5 147.7 168.3 154.7 162.5C161.9 156.7 171.6 149.4 183.8 140.6C196.6 131 206.9 122.6 214.7 115.4C222.5 108.2 228.2 101.6 231.8 95.6C235.4 89.6 237.2 83.6 237.2 77.6C237.2 69.2 234.5 62.3 229.1 56.9C223.9 51.5 216.9 47.4 208.1 44.6C199.5 41.8 190.1 40.4 179.9 40.4C173.3 40.4 166.3 41.1 158.9 42.5C151.7 43.7 145 45.7 138.8 48.5C132.6 51.3 127.5 55 123.5 59.6C119.7 64.2 117.8 69.8 117.8 76.4C117.8 82.8 119.9 87.8 124.1 91.4C128.3 95 133.3 96.8 139.1 96.8C145.5 96.8 150.9 94.7 155.3 90.5C159.7 86.3 162 81.3 162.2 75.5C162.2 71.5 161.1 68.1 158.9 65.3C156.9 62.5 154.3 60.2 151.1 58.4C148.1 56.6 144.8 55.8 141.2 56C143.2 53.8 145.7 52.1 148.7 50.9C151.9 49.5 155.1 48.5 158.3 47.9ZM118.7 241.1C113.1 246.5 110.3 253.2 110.3 261.2C110.3 266.8 112 271.2 115.4 274.4C119 277.6 123.9 279.2 130.1 279.2C135.7 279.2 140.7 277.9 145.1 275.3C149.5 272.7 153 269.3 155.6 265.1C158.2 260.7 159.5 256.1 159.5 251.3C159.5 245.5 157.7 241 154.1 237.8C150.5 234.6 145.5 233 139.1 233C131.1 233 124.3 235.7 118.7 241.1Z" fill="black"/>
</svg>
